<svg xmlns="http://www.w3.org/2000/svg" width="1200" height="700" viewBox="0 0 1200 700"><rect width="1200" height="700" fill="#f8fafc"/><rect x="40" y="35" width="1120" height="130" rx="22" fill="#111827"/><text x="75" y="78" fill="#93c5fd" font-family="Arial" font-size="15" font-weight="700">SALES FOLLOW-UP WORKFLOW TOOL</text><text x="75" y="120" fill="#fff" font-family="Arial" font-size="38" font-weight="800">FollowUpPilot AI</text><text x="75" y="150" fill="#e5e7eb" font-family="Arial" font-size="19">Load sample scenarios or enter customer context to generate a complete follow-up workflow.</text><text x="50" y="215" font-family="Arial" font-size="30" font-weight="800" fill="#111827">Customer follow-up builder</text><rect x="50" y="245" width="1100" height="390" rx="18" fill="#ffffff" stroke="#e5e7eb"/><text x="80" y="292" font-family="Arial" font-size="16" fill="#64748b" font-weight="800">LOAD SAMPLE SCENARIO</text><rect x="80" y="310" width="1040" height="50" rx="10" fill="#f1f5f9"/><text x="105" y="342" font-family="Arial" font-size="19" fill="#111827">Price Objection</text><text x="80" y="410" font-family="Arial" font-size="16" fill="#64748b" font-weight="800">CUSTOMER AND PROJECT DETAILS</text><rect x="80" y="430" width="500" height="50" rx="10" fill="#f1f5f9"/><text x="105" y="462" font-family="Arial" font-size="18" fill="#111827">Avery Johnson</text><rect x="620" y="430" width="500" height="50" rx="10" fill="#f1f5f9"/><text x="645" y="462" font-family="Arial" font-size="18" fill="#111827">Summit Home Services</text><rect x="80" y="500" width="500" height="50" rx="10" fill="#f1f5f9"/><text x="105" y="532" font-family="Arial" font-size="18" fill="#111827">Roof Replacement</text><rect x="620" y="500" width="500" height="50" rx="10" fill="#f1f5f9"/><text x="645" y="532" font-family="Arial" font-size="18" fill="#111827">Estimate Presented</text><text x="80" y="590" font-family="Arial" font-size="16" fill="#64748b" font-weight="800">FOLLOW-UP STRATEGY</text><text x="300" y="590" font-family="Arial" font-size="18" fill="#4b5563">Price • Financing: Yes • Urgency: High • Tone: Consultative</text></svg>